<mxfile host="65bd71144e">
    <diagram id="p9KDn4jCpWFYpTwD8CJG" name="第 1 页">
        <mxGraphModel dx="2203" dy="1873" grid="1" gridSize="6" guides="1" tooltips="1" connect="1" arrows="1" fold="1" page="1" pageScale="1" pageWidth="827" pageHeight="1169" background="#FFFFFF" math="0" shadow="0">
            <root>
                <mxCell id="0"/>
                <mxCell id="1" parent="0"/>
                <mxCell id="3" value="" style="rounded=0;whiteSpace=wrap;html=1;fillColor=#dae8fc;strokeColor=#6c8ebf;" parent="1" vertex="1">
                    <mxGeometry x="190" y="160" width="424" height="360" as="geometry"/>
                </mxCell>
                <mxCell id="2" value="" style="rounded=0;whiteSpace=wrap;html=1;fillColor=#f8cecc;strokeColor=#b85450;" parent="1" vertex="1">
                    <mxGeometry x="250.5" y="215" width="303" height="250" as="geometry"/>
                </mxCell>
                <mxCell id="4" value="" style="endArrow=none;dashed=1;html=1;dashPattern=1 3;strokeWidth=2;" parent="1" edge="1">
                    <mxGeometry width="50" height="50" relative="1" as="geometry">
                        <mxPoint x="40" y="215" as="sourcePoint"/>
                        <mxPoint x="250.5" y="215" as="targetPoint"/>
                    </mxGeometry>
                </mxCell>
                <mxCell id="5" value="" style="endArrow=none;dashed=1;html=1;dashPattern=1 3;strokeWidth=2;" parent="1" edge="1">
                    <mxGeometry width="50" height="50" relative="1" as="geometry">
                        <mxPoint x="40" y="465" as="sourcePoint"/>
                        <mxPoint x="250.5" y="465" as="targetPoint"/>
                    </mxGeometry>
                </mxCell>
                <mxCell id="6" value="" style="endArrow=none;dashed=1;html=1;dashPattern=1 3;strokeWidth=2;" parent="1" edge="1">
                    <mxGeometry width="50" height="50" relative="1" as="geometry">
                        <mxPoint x="40" y="215" as="sourcePoint"/>
                        <mxPoint x="250.5" y="215" as="targetPoint"/>
                    </mxGeometry>
                </mxCell>
                <mxCell id="7" value="" style="endArrow=none;dashed=1;html=1;dashPattern=1 3;strokeWidth=2;" parent="1" edge="1">
                    <mxGeometry width="50" height="50" relative="1" as="geometry">
                        <mxPoint x="553.5" y="465" as="sourcePoint"/>
                        <mxPoint x="764" y="465" as="targetPoint"/>
                    </mxGeometry>
                </mxCell>
                <mxCell id="8" value="" style="endArrow=none;dashed=1;html=1;dashPattern=1 3;strokeWidth=2;" parent="1" edge="1">
                    <mxGeometry width="50" height="50" relative="1" as="geometry">
                        <mxPoint x="553.5" y="215" as="sourcePoint"/>
                        <mxPoint x="764" y="215" as="targetPoint"/>
                    </mxGeometry>
                </mxCell>
                <mxCell id="9" value="" style="endArrow=classic;html=1;" parent="1" edge="1">
                    <mxGeometry width="50" height="50" relative="1" as="geometry">
                        <mxPoint x="490" y="250" as="sourcePoint"/>
                        <mxPoint x="540" y="40" as="targetPoint"/>
                    </mxGeometry>
                </mxCell>
                <mxCell id="10" value="&lt;font face=&quot;Times New Roman&quot; style=&quot;font-size: 20px;&quot;&gt;Iout(bordSize+1:size(I,1)+bordSize, bordSize+1:size(I,2)+bordSize) = I;&lt;/font&gt;" style="text;whiteSpace=wrap;html=1;fontStyle=1;fontSize=20;" parent="1" vertex="1">
                    <mxGeometry x="310" y="-10" width="760" height="70" as="geometry"/>
                </mxCell>
                <mxCell id="12" value="" style="rounded=0;whiteSpace=wrap;html=1;fontSize=20;fillColor=#7F00FF;sketch=1;curveFitting=1;jiggle=2;strokeWidth=1;" parent="1" vertex="1">
                    <mxGeometry x="553.5" y="215" width="58.5" height="247" as="geometry"/>
                </mxCell>
                <mxCell id="13" value="" style="endArrow=classic;html=1;fontSize=20;" parent="1" edge="1">
                    <mxGeometry width="50" height="50" relative="1" as="geometry">
                        <mxPoint x="582" y="332" as="sourcePoint"/>
                        <mxPoint x="726" y="324" as="targetPoint"/>
                    </mxGeometry>
                </mxCell>
                <mxCell id="14" value="&lt;font face=&quot;Times New Roman&quot;&gt;Iout(bordSize+1:size(Iout,1)-bordSize,size(Iout,2)-bordSize+1:size(Iout,2)) =&amp;nbsp; &amp;nbsp; &amp;nbsp; &amp;nbsp; repmat(I(1:size(I,1),size(I,2)),1,bordSize);&lt;br&gt;将原图像I的最后一列填充成29列, 29只的bordSize的大小, 即需要进行填充的图像大小的宽度和高度&lt;br&gt;&lt;/font&gt;" style="text;whiteSpace=wrap;html=1;fontSize=20;fontStyle=1;align=left;verticalAlign=top;" parent="1" vertex="1">
                    <mxGeometry x="690" y="264" width="756" height="96" as="geometry"/>
                </mxCell>
                <mxCell id="15" value="" style="endArrow=none;dashed=1;html=1;dashPattern=1 3;strokeWidth=2;" parent="1" edge="1">
                    <mxGeometry width="50" height="50" relative="1" as="geometry">
                        <mxPoint x="250.5" y="83" as="sourcePoint"/>
                        <mxPoint x="250.5" y="215" as="targetPoint"/>
                    </mxGeometry>
                </mxCell>
                <mxCell id="16" value="" style="endArrow=none;dashed=1;html=1;dashPattern=1 3;strokeWidth=2;" parent="1" edge="1">
                    <mxGeometry width="50" height="50" relative="1" as="geometry">
                        <mxPoint x="552.9300000000001" y="83" as="sourcePoint"/>
                        <mxPoint x="552.9300000000001" y="215" as="targetPoint"/>
                    </mxGeometry>
                </mxCell>
                <mxCell id="17" value="" style="endArrow=none;dashed=1;html=1;dashPattern=1 3;strokeWidth=2;" parent="1" edge="1">
                    <mxGeometry width="50" height="50" relative="1" as="geometry">
                        <mxPoint x="250.5" y="465" as="sourcePoint"/>
                        <mxPoint x="250.5" y="597" as="targetPoint"/>
                    </mxGeometry>
                </mxCell>
                <mxCell id="18" value="" style="endArrow=none;dashed=1;html=1;dashPattern=1 3;strokeWidth=2;" parent="1" edge="1">
                    <mxGeometry width="50" height="50" relative="1" as="geometry">
                        <mxPoint x="552.9300000000001" y="465" as="sourcePoint"/>
                        <mxPoint x="552.9300000000001" y="597" as="targetPoint"/>
                    </mxGeometry>
                </mxCell>
                <mxCell id="19" value="" style="rounded=0;whiteSpace=wrap;html=1;fontSize=20;fillColor=#7F00FF;sketch=1;curveFitting=1;jiggle=2;strokeWidth=1;" parent="1" vertex="1">
                    <mxGeometry x="192" y="215" width="58.5" height="247" as="geometry"/>
                </mxCell>
                <mxCell id="21" value="" style="rounded=0;whiteSpace=wrap;html=1;fontSize=20;fillColor=#FF8000;sketch=1;curveFitting=1;jiggle=2;strokeWidth=1;rotation=90;" parent="1" vertex="1">
                    <mxGeometry x="372" y="-28.25" width="58.5" height="423.5" as="geometry"/>
                </mxCell>
                <mxCell id="22" value="" style="endArrow=classic;html=1;fontSize=20;" parent="1" edge="1">
                    <mxGeometry width="50" height="50" relative="1" as="geometry">
                        <mxPoint x="228" y="364" as="sourcePoint"/>
                        <mxPoint x="60" y="316" as="targetPoint"/>
                    </mxGeometry>
                </mxCell>
                <mxCell id="23" value="&lt;b&gt;&lt;font face=&quot;Times New Roman&quot;&gt;Iout(bordSize+1:size(Iout,1)-bordSize,1:bordSize) = repmat(I(1:size(I,1),1),1,bordSize);&lt;/font&gt;&lt;br&gt;将原图像I的第一列填充成29列&lt;br&gt;&lt;/b&gt;" style="text;whiteSpace=wrap;html=1;fontSize=20;" parent="1" vertex="1">
                    <mxGeometry x="-318" y="259" width="552" height="72" as="geometry"/>
                </mxCell>
                <mxCell id="24" value="&lt;b&gt;&lt;font face=&quot;Times New Roman&quot;&gt;Iout(1:bordSize,:) = repmat(Iout(bordSize+1,:),bordSize,1);&lt;/font&gt;&lt;/b&gt;" style="text;whiteSpace=wrap;html=1;fontSize=20;" parent="1" vertex="1">
                    <mxGeometry x="-264" y="12" width="552" height="48" as="geometry"/>
                </mxCell>
                <mxCell id="25" value="" style="endArrow=classic;html=1;fontFamily=Times New Roman;fontSize=20;entryX=0.5;entryY=1;entryDx=0;entryDy=0;" parent="1" target="24" edge="1">
                    <mxGeometry width="50" height="50" relative="1" as="geometry">
                        <mxPoint x="342" y="188" as="sourcePoint"/>
                        <mxPoint x="392" y="138" as="targetPoint"/>
                    </mxGeometry>
                </mxCell>
                <mxCell id="27" value="" style="rounded=0;whiteSpace=wrap;html=1;fontSize=20;fillColor=#FF8000;sketch=1;curveFitting=1;jiggle=2;strokeWidth=1;rotation=90;" parent="1" vertex="1">
                    <mxGeometry x="372.75" y="282" width="58.5" height="423.5" as="geometry"/>
                </mxCell>
                <mxCell id="28" value="" style="endArrow=classic;html=1;fontFamily=Times New Roman;fontSize=20;exitX=0.573;exitY=0.5;exitDx=0;exitDy=0;exitPerimeter=0;" parent="1" source="27" edge="1">
                    <mxGeometry width="50" height="50" relative="1" as="geometry">
                        <mxPoint x="300" y="392" as="sourcePoint"/>
                        <mxPoint x="408" y="600" as="targetPoint"/>
                    </mxGeometry>
                </mxCell>
                <mxCell id="29" value="&lt;b&gt;Iout(size(Iout,1)-bordSize+1:size(Iout,1),:) = repmat(Iout(size(I,1)+bordSize,:),bordSize,1);&lt;br&gt;将进行了一次填充后的图像的最后一行扩展成29行&lt;br&gt;&lt;/b&gt;" style="text;whiteSpace=wrap;html=1;fontSize=20;fontFamily=Times New Roman;" parent="1" vertex="1">
                    <mxGeometry x="30" y="606" width="876" height="72" as="geometry"/>
                </mxCell>
                <mxCell id="30" value="" style="endArrow=none;html=1;exitX=0.002;exitY=0.855;exitDx=0;exitDy=0;exitPerimeter=0;strokeWidth=10;entryX=0.989;entryY=0.85;entryDx=0;entryDy=0;entryPerimeter=0;strokeColor=#6c8ebf;fillColor=#dae8fc;" edge="1" parent="1" source="27" target="21">
                    <mxGeometry width="50" height="50" relative="1" as="geometry">
                        <mxPoint x="204" y="265" as="sourcePoint"/>
                        <mxPoint x="254" y="215" as="targetPoint"/>
                        <Array as="points">
                            <mxPoint x="253" y="234"/>
                        </Array>
                    </mxGeometry>
                </mxCell>
                <mxCell id="31" value="" style="endArrow=none;html=1;exitX=0.002;exitY=0.855;exitDx=0;exitDy=0;exitPerimeter=0;strokeWidth=10;entryX=0.989;entryY=0.85;entryDx=0;entryDy=0;entryPerimeter=0;strokeColor=#6c8ebf;fillColor=#dae8fc;" edge="1" parent="1">
                    <mxGeometry width="50" height="50" relative="1" as="geometry">
                        <mxPoint x="552.1375000000003" y="464.7570000000002" as="sourcePoint"/>
                        <mxPoint x="553.5050000000001" y="212.24649999999986" as="targetPoint"/>
                        <Array as="points">
                            <mxPoint x="553.48" y="234.14"/>
                        </Array>
                    </mxGeometry>
                </mxCell>
                <mxCell id="32" value="" style="endArrow=none;html=1;strokeColor=#d6b656;strokeWidth=10;fontFamily=Helvetica;entryX=0;entryY=0;entryDx=0;entryDy=0;exitX=0;exitY=1;exitDx=0;exitDy=0;fillColor=#fff2cc;" edge="1" parent="1" source="27" target="27">
                    <mxGeometry width="50" height="50" relative="1" as="geometry">
                        <mxPoint x="198" y="468" as="sourcePoint"/>
                        <mxPoint x="606" y="468" as="targetPoint"/>
                    </mxGeometry>
                </mxCell>
                <mxCell id="33" value="" style="endArrow=none;html=1;strokeColor=#d6b656;strokeWidth=10;fontFamily=Helvetica;entryX=0;entryY=0;entryDx=0;entryDy=0;exitX=0;exitY=1;exitDx=0;exitDy=0;fillColor=#fff2cc;" edge="1" parent="1">
                    <mxGeometry width="50" height="50" relative="1" as="geometry">
                        <mxPoint x="188.5" y="210" as="sourcePoint"/>
                        <mxPoint x="612" y="210" as="targetPoint"/>
                    </mxGeometry>
                </mxCell>
            </root>
        </mxGraphModel>
    </diagram>
</mxfile>